<svg width="90" height="114" viewBox="0 0 90 114" fill="none" xmlns="http://www.w3.org/2000/svg">
<path d="M38.3675 0.766875L38.93 0.8625L86.7426 12.1125C87.5723 12.3066 88.3239 12.7475 88.8982 13.3771C89.4725 14.0066 89.8427 14.7953 89.9601 15.6394L89.9995 16.2188V97.7813C89.9998 98.6336 89.742 99.4659 89.26 100.169C88.7781 100.872 88.0946 101.412 87.2995 101.719L86.7482 101.888L38.9357 113.138C38.3636 113.272 37.7697 113.286 37.192 113.178C36.6143 113.07 36.0656 112.842 35.581 112.51C35.0965 112.177 34.6867 111.747 34.3781 111.247C34.0695 110.746 33.8687 110.187 33.7888 109.605L33.7494 109.031V4.96875C33.7487 3.87569 34.1723 2.82503 34.9309 2.03808C35.6895 1.25114 36.7239 0.78935 37.8163 0.75L38.3675 0.766875ZM42.1869 10.2956V103.704L81.562 94.4401V19.56L42.1869 10.2956ZM28.1244 12V20.4375H8.4369V93.5626H28.1244V102H4.21814C3.19868 102 2.21372 101.631 1.44541 100.961C0.677096 100.291 0.177411 99.3651 0.0387645 98.3551L-0.000610352 97.7813V16.2188C-0.00056736 15.1993 0.368631 14.2143 1.03871 13.446C1.70878 12.6777 2.6344 12.178 3.64439 12.0394L4.21814 12H28.1244ZM56.2494 51.375C57.7413 51.375 59.172 51.9677 60.2269 53.0226C61.2818 54.0775 61.8744 55.5082 61.8744 57C61.8744 58.4919 61.2818 59.9226 60.2269 60.9775C59.172 62.0324 57.7413 62.6251 56.2494 62.6251C54.7576 62.6251 53.3269 62.0324 52.272 60.9775C51.2171 59.9226 50.6244 58.4919 50.6244 57C50.6244 55.5082 51.2171 54.0775 52.272 53.0226C53.3269 51.9677 54.7576 51.375 56.2494 51.375Z" fill="white"/>
</svg>
